<svg width="180" height="29" viewBox="0 0 180 29" fill="none" xmlns="http://www.w3.org/2000/svg">
<g id="Layer_1" clip-path="url(#clip0_19_739)">
<path id="Vector" d="M179.921 0.389262C180.134 0.233557 179.835 0.0700671 179.827 0C179.559 0.34255 179.992 0.443758 179.921 0.389262Z" fill="#D020C9"/>
<path id="Vector_2" d="M177.065 3.74472L177.049 3.5968L176.711 4.23519L177.065 3.74472Z" fill="#D020C9"/>
<path id="Vector_3" d="M173.611 6.01801C174.24 6.29828 174.846 5.16163 175.57 4.91251L175.743 4.95144V4.39868C175.114 5.03583 174.396 5.58108 173.611 6.01801Z" fill="#D020C9"/>
<path id="Vector_4" d="M171.101 6.04918C171.321 6.17374 170.778 6.43844 171.581 5.87012H171.471C171.352 5.93975 171.229 5.99964 171.101 6.04918Z" fill="#D020C9"/>
<path id="Vector_5" d="M171.471 5.86226C171.14 5.86226 171.832 5.64428 171.471 5.86226V5.86226Z" fill="#D020C9"/>
<path id="Vector_6" d="M169.771 6.88988L170.188 6.46169C170.023 6.40719 169.566 6.60182 169.684 6.46169C169.212 6.78867 169.377 6.85095 169.771 6.88988Z" fill="#D020C9"/>
<path id="Vector_7" d="M169.464 7.48936L169.692 7.28694C169.614 7.24023 169.543 7.27915 169.464 7.48936Z" fill="#D020C9"/>
<path id="Vector_8" d="M170.18 6.85876C170.023 7.00668 169.857 7.14682 169.692 7.28695C169.81 7.33367 169.897 7.48937 169.928 7.10789C169.952 7.24024 169.999 7.08454 170.18 6.85876Z" fill="#D020C9"/>
<path id="Vector_9" d="M170.534 6.76536C170.873 6.76536 171.274 6.60187 170.857 7.03785C171.793 6.46174 171.463 6.19704 170.534 6.76536Z" fill="#D020C9"/>
<path id="Vector_10" d="M173.721 6.61749L174.185 6.53185L174.413 6.18152C174.335 6.35279 173.611 6.46179 173.721 6.61749Z" fill="#D020C9"/>
<path id="Vector_11" d="M166.466 8.11218C166.466 8.23675 166.773 8.33017 166.867 8.44695L167.206 8.1589C166.93 8.17447 166.521 8.26789 166.466 8.11218Z" fill="#D020C9"/>
<path id="Vector_12" d="M166.828 8.44702L166.325 8.883C166.86 8.68836 166.915 8.55601 166.828 8.44702Z" fill="#D020C9"/>
<path id="Vector_13" d="M169.614 8.08885C169.865 7.80859 170.117 7.5361 170.4 7.24805L169.48 8.18228L169.614 8.08885Z" fill="#D020C9"/>
<path id="Vector_14" d="M164.184 9.02305L164.412 8.63379L163.972 9.25661L164.184 9.02305Z" fill="#D020C9"/>
<path id="Vector_15" d="M162.705 9.64595C162.87 9.33454 162.225 9.41239 162.438 9.17883C162.077 9.37527 161.759 9.63977 161.501 9.95736C161.857 9.72528 162.28 9.61582 162.705 9.64595Z" fill="#D020C9"/>
<path id="Vector_16" d="M161.053 10.3932C161.216 10.2622 161.366 10.1162 161.501 9.95728C161.331 10.08 161.18 10.2269 161.053 10.3932Z" fill="#D020C9"/>
<path id="Vector_17" d="M165.302 9.2488C165.219 9.18532 165.123 9.14114 165.021 9.11957C164.919 9.098 164.813 9.09959 164.711 9.12424L165.066 9.33444L165.302 9.2488Z" fill="#D020C9"/>
<path id="Vector_18" d="M165.365 9.22546H165.302C165.341 9.27218 165.357 9.27218 165.365 9.22546Z" fill="#D020C9"/>
<path id="Vector_19" d="M168.04 8.52478C167.78 8.85176 167.135 9.3578 167.953 9.3033C168.04 8.98411 167.599 9.01525 168.04 8.52478Z" fill="#D020C9"/>
<path id="Vector_20" d="M165.813 9.49023L166.466 9.30338C166.419 9.22553 166.262 9.15546 166.395 8.99976L165.813 9.49023Z" fill="#D020C9"/>
<path id="Vector_21" d="M165.538 9.71603L165.805 9.49805L165.561 9.56811L165.538 9.71603Z" fill="#D020C9"/>
<path id="Vector_22" d="M162.257 10.2843C162.01 10.5115 161.718 10.6841 161.399 10.7903C161.787 10.7222 162.169 10.6206 162.54 10.4867C162.532 10.3543 162.642 10.1363 162.257 10.2843Z" fill="#D020C9"/>
<path id="Vector_23" d="M163.642 9.86389L163.594 9.9106C163.642 9.91839 163.674 9.91839 163.642 9.86389Z" fill="#D020C9"/>
<path id="Vector_24" d="M157.984 11.9426L158.063 11.9815L158.055 11.927L157.984 11.9426Z" fill="#D020C9"/>
<path id="Vector_25" d="M162.626 10.5179C162.738 10.507 162.845 10.4712 162.941 10.4132C163.036 10.3552 163.117 10.2765 163.177 10.1831C162.974 10.3028 162.761 10.4044 162.54 10.4867C162.532 10.5334 162.532 10.5646 162.626 10.5179Z" fill="#D020C9"/>
<path id="Vector_26" d="M160.171 10.8682C160.352 10.8836 160.534 10.8836 160.714 10.8682C160.525 10.8214 160.171 10.7669 160.171 10.8682Z" fill="#D020C9"/>
<path id="Vector_27" d="M163.469 9.85615C163.381 9.79387 163.405 9.82501 163.469 9.85615V9.85615Z" fill="#D020C9"/>
<path id="Vector_28" d="M163.468 9.85608C163.358 9.95331 163.261 10.0631 163.177 10.1831C163.324 10.1041 163.463 10.0129 163.594 9.91058C163.549 9.90206 163.506 9.88343 163.468 9.85608Z" fill="#D020C9"/>
<path id="Vector_29" d="M157.606 14.2937C157.559 13.99 158.22 13.5151 158.975 13.6008C159.534 13.1648 158.794 12.3551 158.063 11.9814C158.063 12.1138 158.126 12.2306 157.528 12.6043C157.811 12.6977 159.101 12.5342 158.637 12.9702C157.85 13.3828 157.897 13.0869 157.425 13.0558C157.905 13.3127 156.497 13.9355 156.859 14.4104L157.559 13.99C157.598 14.0679 157.37 14.2859 157.606 14.2937Z" fill="#D020C9"/>
<path id="Vector_30" d="M159.298 11.6078L159.55 11.4832C159.199 11.5229 158.843 11.4938 158.503 11.3976C158.11 11.6779 158.055 11.8102 158.055 11.9192C158.503 11.8024 158.936 11.6623 159.377 11.5377L159.298 11.6078Z" fill="#D020C9"/>
<path id="Vector_31" d="M160.738 11.0784C160.643 11.4676 160.053 11.8569 160.565 12.0282C161.352 11.7323 161.013 11.5766 161.43 11.2497C160.211 11.7635 161.721 10.9538 160.754 11.0862C160.96 10.9628 161.175 10.856 161.399 10.767C161.17 10.8074 160.939 10.8334 160.706 10.8448C160.777 10.8448 160.801 10.8448 160.706 10.8448C160.718 10.8908 160.718 10.939 160.706 10.985C160.329 11.0395 160.628 10.9227 160.706 10.8448C160.785 10.767 160.706 10.8448 160.706 10.7903L159.518 11.3898C159.936 11.3359 160.346 11.2313 160.738 11.0784Z" fill="#D020C9"/>
<path id="Vector_32" d="M167.56 10.2453C167.505 10.2453 167.497 10.2453 167.489 10.1909C167.481 10.1364 167.403 10.2998 167.56 10.2453Z" fill="#D020C9"/>
<path id="Vector_33" d="M166.97 10.2765C167.008 10.1971 167.062 10.1267 167.13 10.0703C167.198 10.0138 167.278 9.97261 167.363 9.94947C167.654 9.94947 167.426 10.0974 167.489 10.1908C167.623 10.0351 168.001 9.70813 167.387 9.79377L167.316 9.87162C166.781 9.98062 165.986 9.87162 166.057 9.7782C166.315 10.0159 166.629 10.187 166.97 10.2765Z" fill="#D020C9"/>
<path id="Vector_34" d="M163.846 10.8215L162.87 11.3665L163.508 11.4444L163.413 11.2886C164.027 11.1329 163.822 10.9772 163.846 10.8215Z" fill="#D020C9"/>
<path id="Vector_35" d="M157.811 11.818L157.834 11.4443L157.386 12.1061L157.811 11.818Z" fill="#D020C9"/>
<path id="Vector_36" d="M156.457 12.285L156.41 11.9736L156.103 12.2617L156.457 12.285Z" fill="#D020C9"/>
<path id="Vector_37" d="M76.3717 27.6532L76.0491 27.7466C76.1596 27.7264 76.2677 27.6951 76.3717 27.6532Z" fill="#D020C9"/>
<path id="Vector_38" d="M78.7559 27.5909L78.8031 27.4352C78.7008 27.5208 78.6536 27.5831 78.7559 27.5909Z" fill="#D020C9"/>
<path id="Vector_39" d="M122.072 20.0703C121.561 19.8601 120.97 19.4942 121.081 19.829L121.269 20.1404C121.526 20.0485 121.803 20.0243 122.072 20.0703Z" fill="#D020C9"/>
<path id="Vector_40" d="M98.1203 24.7181L98.2619 24.8115L98.5609 24.469L98.1203 24.7181Z" fill="#D020C9"/>
<path id="Vector_41" d="M97.8842 26.135L97.239 25.9637C97.4464 26.046 97.663 26.1035 97.8842 26.135Z" fill="#D020C9"/>
<path id="Vector_42" d="M63.3887 28.385L63.0189 28.7431C63.6169 28.7276 63.3887 28.5563 63.3887 28.385Z" fill="#D020C9"/>
<path id="Vector_43" d="M142.318 16.3101C141.971 16.2732 141.622 16.2863 141.279 16.349C141.806 16.4191 142.263 16.5826 142.318 16.3101Z" fill="#D020C9"/>
<path id="Vector_44" d="M77.1744 24.033C76.9776 24.103 76.8911 24.1731 76.8989 24.2509C77.1035 24.1887 77.2216 24.1186 77.1744 24.033Z" fill="#D020C9"/>
<path id="Vector_45" d="M140.13 16.6214H140.358C140.655 16.491 140.967 16.3994 141.287 16.3489C141.086 16.2959 140.876 16.293 140.674 16.3405C140.472 16.3881 140.285 16.4846 140.13 16.6214Z" fill="#D020C9"/>
<path id="Vector_46" d="M16.0517 26.789C16.0517 26.789 15.9809 26.789 15.9573 26.7345C15.9337 26.68 15.9809 26.7813 16.0517 26.789Z" fill="#D020C9"/>
<path id="Vector_47" d="M3.65884 20.0703C3.83758 20.1117 4.01364 20.1637 4.18604 20.226C4.02269 20.1396 3.84337 20.0866 3.65884 20.0703Z" fill="#D020C9"/>
<path id="Vector_48" d="M150.894 13.811C150.894 13.7643 151.178 13.7098 150.894 13.811V13.811Z" fill="#D020C9"/>
<path id="Vector_49" d="M152.697 14.6908C152.67 14.7153 152.65 14.7458 152.637 14.7796C152.625 14.8135 152.621 14.8497 152.625 14.8854C152.625 14.8142 152.65 14.7451 152.697 14.6908Z" fill="#D020C9"/>
<path id="Vector_50" d="M137.612 19.3152C137.676 19.3619 137.692 19.3697 137.612 19.3152V19.3152Z" fill="#D020C9"/>
<path id="Vector_51" d="M151.374 13.8421C151.241 13.8265 151.106 13.8265 150.973 13.8421C151.107 13.8547 151.241 13.8547 151.374 13.8421Z" fill="#D020C9"/>
<path id="Vector_52" d="M151.272 13.702H151.54C151.563 13.6007 151.516 13.5774 151.272 13.702Z" fill="#D020C9"/>
<path id="Vector_53" d="M150.485 13.9434C150.645 13.8963 150.808 13.8625 150.973 13.8422C150.91 13.8422 150.879 13.8422 150.894 13.8422L150.485 13.9434Z" fill="#D020C9"/>
<path id="Vector_54" d="M41.5064 27.5908C41.5064 27.5908 41.4592 27.5908 41.4435 27.5908C41.1287 27.6998 41.2625 27.6765 41.5064 27.5908Z" fill="#D020C9"/>
<path id="Vector_55" d="M113.543 24.9984C113.657 24.8314 113.819 24.7025 114.009 24.6289C114.199 24.5552 114.406 24.5402 114.605 24.5858L114.125 23.6671L113.543 24.9984Z" fill="#D020C9"/>
<path id="Vector_56" d="M70.6828 27.9334L71.4697 28.2214C70.5412 28.7431 69.896 28.5873 70.6041 29C70.6749 27.949 73.6256 28.8053 73.6964 27.7388L74.2158 27.9412C74.0663 27.9412 74.0505 28.0035 73.901 27.9957C74.9161 28.4706 74.6171 27.2171 75.9075 27.3106C76.356 27.3806 76.6944 27.5208 76.3718 27.6609L77.3632 27.3651C77.6543 27.3651 77.5835 27.5597 77.3002 27.5519L78.8188 27.4118C79.1121 27.1952 79.4226 27.0026 79.7473 26.8357C80.1408 26.9758 79.5585 26.9602 79.6608 27.0848L80.4949 26.7967C80.8489 27.0537 80.1644 27.3495 79.5821 27.3339C80.4083 28.3538 80.2667 27.0381 81.9899 27.5831L81.203 27.7465C81.7381 28.3226 82.3518 28.0813 83.2725 28.4161C83.0443 28.2292 81.4233 27.5519 82.3282 27.2483C82.6948 27.3432 83.0844 27.2929 83.4141 27.1082C83.4141 27.4818 83.9098 27.3729 84.5156 27.3184V27.8244C85.1609 27.6453 85.0979 27.3962 85.4678 27.1549C85.7004 27.1431 85.9308 27.2045 86.1259 27.3304C86.321 27.4563 86.4707 27.6402 86.5536 27.8555C87.726 27.8555 85.7195 27.2872 87.0887 27.077C88.0418 27.1496 88.9984 26.9892 89.8741 26.6099C90.5587 26.7422 89.7718 26.9213 90.0236 27.0537L90.6059 26.6177C90.7475 26.6177 90.7082 26.7422 90.6925 26.8123C91.1882 26.6255 90.6925 26.3063 91.4793 26.1272C91.6603 25.5745 93.1632 26.8279 94.0995 26.1272C94.3513 26.2518 94.0051 26.4386 94.0995 26.6255C94.8759 26.3895 95.6169 26.0518 96.3027 25.6212L97.2705 25.8859C96.5466 25.5589 97.4043 25.0529 98.1518 24.6402C97.8921 24.4767 97.6639 24.3366 97.5223 24.2665L98.734 23.9162C98.8914 23.9863 98.7813 24.1653 98.5924 24.3911L98.797 24.3678C99.2455 24.5235 99.0409 24.8271 98.7498 25.1463L98.2777 24.8738C97.9944 25.193 97.7348 25.5511 97.8213 25.8314C97.941 25.7548 98.0747 25.7019 98.2147 25.6757C98.1439 25.7613 98.0967 25.8392 98.1439 25.8859C98.1911 25.9326 98.3092 25.8158 98.498 25.6757L98.8206 26.2051L98.8757 25.9793L100.52 26.1973C101.63 25.5355 102.566 24.6402 104.376 24.251C103.959 24.6947 104.336 24.9205 104.376 25.4032C103.825 24.9361 102.975 25.738 102.015 25.7146C102.519 25.7146 102.432 25.9637 102.314 26.0571L103.967 25.4499C103.967 25.8469 104.36 25.7146 104.816 25.8392C104.407 25.0606 106.036 25.2241 106.697 24.8971C106.768 25.1541 106.626 25.4421 105.776 25.4577C106.768 25.9559 106.886 24.43 107.846 24.8271C107.641 24.8271 107.531 24.8271 107.46 24.9672C107.917 24.6869 109.105 24.7492 108.853 24.9672H108.656C110.025 24.9205 112.811 24.5468 112.929 23.8617C112.92 24.1859 112.87 24.5076 112.779 24.8193L114.935 22.2969C114.794 22.8886 115.777 24.1342 114.691 24.5935C115.171 24.671 115.663 24.6003 116.1 24.3911C115.864 24.3366 115.439 23.6126 115.738 23.5581C116.272 23.8615 116.847 24.087 117.445 24.2276C117.099 24.1498 117.351 23.2155 117.878 23.1766C117.815 23.3245 118.036 24.0486 117.878 24.1653L119.058 23.1299C118.759 23.3245 119.106 23.9084 119.428 24.0797C119.271 23.9396 120.561 23.9318 120.892 23.7994L120.31 23.6749C121.805 23.5892 121.584 22.2424 123.04 22.0711C122.89 22.2735 122.772 23.2389 123.536 23.2389C123.803 22.7406 124.7 20.9033 125.896 20.3506L126.179 20.5608L127.108 20.1014C126.294 21.2507 125.34 22.2966 124.267 23.2155C124.85 23.3401 124.464 23.4958 125.29 23.3479C125.613 23.5425 124.897 23.7761 124.653 23.8228L126.604 23.6904C126.431 23.1844 127.981 22.9119 127.832 22.4993C127.171 22.7873 126.51 23.1065 125.841 23.379C125.676 22.8886 126.801 21.7286 128.162 21.5729C128.54 21.7208 128.068 22.5382 128.162 22.7017C128.562 22.4165 129.039 22.2565 129.531 22.2424L129.012 22.6161C129.799 22.6784 130.114 21.7208 131.113 22.0555C131.428 22.0555 132.167 22.5538 132.167 22.2346C131.843 21.8506 131.606 21.4028 131.47 20.9209C131.334 20.439 131.304 19.9341 131.38 19.4397C132.105 19.5458 132.821 19.7072 133.521 19.9224C134.127 20.2805 132.97 21.1758 133.521 21.4794C133.521 21.3393 133.765 21.1057 133.867 21.0279C134.221 21.0824 133.82 21.4872 134.52 21.2848C134.52 20.7398 135.968 21.0279 134.764 20.771C135.425 20.4829 135.551 20.771 136.338 20.5374C136.007 20.2571 136.826 19.2451 137.486 18.9804C137.486 19.1205 137.66 19.2606 137.754 19.3229C139.178 19.0894 139.989 19.1594 141.303 18.848C141.452 18.9414 142.09 18.9414 141.901 19.2295C142.088 19.0164 142.33 18.8577 142.601 18.7702C143.498 19.0271 141.72 19.0504 142.444 19.4475C142.444 19.1361 143.396 18.7857 143.923 18.4588C143.632 18.0384 142.57 18.6845 142.034 19.0115C141.885 18.3731 142.727 17.4545 144.017 16.8472C145.056 16.4346 144.584 17.1508 144.749 17.0185C146.819 16.6526 146.189 15.4614 147.983 15.4614C148.77 15.6872 148.227 16.24 148.455 16.5047C147.621 16.9017 147.039 16.6137 146.449 16.7927H147.236C146.908 17.0602 146.503 17.2159 146.079 17.2365C146.74 17.4467 149.517 16.3723 151.178 16.2867C151.422 16.0765 151.854 15.804 151.579 15.7028L151.107 15.8974C150.556 15.695 151.894 15.1967 151.233 15.2123C151.861 14.6712 152.62 14.3009 153.436 14.138L153.743 14.5428C153.688 14.4182 153.066 14.4571 152.846 14.6751C153.168 14.3559 154.42 14.862 154.679 14.1302L153.94 14.0134C154.53 13.5852 155.183 12.8456 156.04 12.7444C155.529 12.4018 155.867 12.8534 155.128 12.5031C155.828 13.0013 153.042 13.1181 154.058 13.5541C153.271 13.1259 152.956 13.6163 152.027 13.3283C152.098 13.4684 152.389 13.5463 151.681 13.6553C151.654 13.7177 151.617 13.7756 151.571 13.8265C151.72 13.8331 151.863 13.8788 151.988 13.9589C151.752 14.4027 150.65 14.6907 150.328 14.971C149.895 14.971 150.454 14.7452 150.178 14.644L149.706 15.0644C149.549 14.7452 148.463 14.7997 149.368 14.3404L148.494 14.5661C147.919 14.5046 147.337 14.6158 146.826 14.8853C146.394 14.8853 145.89 15.5393 146.181 15.1812C145.748 15.3758 145.308 15.5549 144.867 15.7339V15.6483C143.506 15.9286 142.215 16.8706 140.524 16.6214C140.007 16.8874 139.443 17.0514 138.863 17.1041L138.643 16.8394C138.077 17.0652 136.818 16.9095 136.629 17.2676C135.842 16.5981 133.741 17.6802 132.695 17.7503V18.1396C131.925 18.2872 131.172 18.5062 130.444 18.7935L130.57 19.1283C129.846 19.5487 128.548 19.2295 127.336 19.4786C127.399 19.3307 127.714 19.3151 127.942 19.3541C126.368 18.848 124.976 20.444 123.559 20.0625C123.443 20.1334 123.313 20.1803 123.178 20.2004C123.043 20.2204 122.905 20.2133 122.772 20.1793H122.851H122.717C122.56 20.1404 122.403 20.0937 122.229 20.0625C122.36 20.1231 122.497 20.1675 122.639 20.1949C122.298 20.2547 121.966 20.3513 121.647 20.4829L121.427 20.1326H121.34C120.955 20.0547 121.073 20.3506 121.34 20.5997C121.173 20.6806 121.017 20.7827 120.876 20.9033C120.49 20.3506 119.908 21.2537 119.413 20.6698C119.2 21.0201 117.532 21.1524 117.422 21.8298C117.422 21.7519 117.28 21.7208 117.485 21.6896C117.066 21.6235 116.637 21.6889 116.257 21.8765L116.021 21.4327L115.171 22.2112C114.573 21.9933 114.322 21.8531 114.833 21.4327C113.558 22.1567 113.771 21.7753 112.685 22.4759V22.1645C112.276 22.219 111.662 22.7017 111.387 22.4759C110.403 21.9777 106.831 22.8886 104.423 22.546C104.958 23.4102 103.282 22.2346 103.258 22.9431C103.101 22.7406 102.755 22.6472 103.125 22.4292C101.937 22.7406 101.283 22.2424 100.504 22.9041C100.347 22.7017 100.733 22.5694 100.599 22.4526C100.512 22.5071 100.237 22.6706 100.103 22.5538C99.9694 22.437 100.261 22.3592 100.442 22.2502C99.2219 22.3903 99.1432 23.0287 99.1039 23.6904C98.8843 23.5546 98.6213 23.5049 98.3666 23.551C98.1119 23.5971 97.8837 23.7357 97.7269 23.9396C97.4908 23.7527 97.1132 23.5659 97.8764 23.4413C97.4436 23.4413 95.2168 23.3245 95.209 23.8228C95.0673 23.706 94.6031 23.8228 94.493 23.8929C93.8224 23.8925 93.1523 23.9315 92.4864 24.0096L92.754 24.0719C92.4235 24.6947 91.9671 24.251 91.1803 24.3678V24.3055C89.3941 23.9707 90.4328 24.5546 88.6702 24.1575L88.7804 24.5235C88.6702 25.302 87.2067 24.1342 86.231 24.5235L86.6008 24.7181C86.0658 25.0217 85.0271 23.706 84.4527 23.6282C84.3268 23.5659 84.6337 23.5114 84.7989 23.4491C83.3354 23.0443 84.6416 23.9473 83.5636 24.1108C83.3511 23.8539 83.7918 23.4257 83.06 23.4102C82.6902 23.2155 80.9985 24.36 79.9834 23.8929C80.2116 24.0875 80.4319 24.2821 79.944 24.4534C79.1572 24.5624 77.8353 23.7761 77.1665 24.4534C77.0642 24.3989 77.0248 24.3444 77.017 24.2977C76.4347 24.4845 75.1206 24.6402 74.7744 24.9984C74.1922 23.7294 71.1471 25.7769 71.1156 24.5546L69.3137 24.6714V24.5468C68.9668 24.4992 68.6137 24.523 68.2765 24.6168C67.9394 24.7106 67.6254 24.8723 67.3544 25.0918C67.0869 25.0217 67.2836 24.9049 67.2993 24.8427C66.189 24.5728 65.0161 24.7462 64.0339 25.3253L63.8766 24.9439C63.4989 25.1774 61.4216 24.3911 59.7771 24.8816C59.7911 24.8411 59.8139 24.8042 59.8438 24.7732C59.8736 24.7423 59.91 24.7182 59.9502 24.7025C58.1011 25.2008 55.4651 23.7294 54.812 25.1463L53.5845 25.52C55.1582 25.5978 53.3643 26.135 54.0173 26.353C53.3957 26.4464 52.3885 25.9637 53.1597 25.8703L53.2855 25.9404C53.5531 25.2008 51.2948 25.7224 51.3342 25.2241C48.1868 25.3175 45.1417 24.9672 42.2146 24.9439L42.5529 25.5122H41.5379C41.2625 25.3798 41.1759 25.0684 41.8998 25.084C41.5143 24.7726 40.6802 25.3643 40.6645 25.481C39.2403 25.2475 41.2153 24.8193 40.7825 24.8037L40.1845 24.8427L40.3182 24.9127C39.8383 25.1463 39.7989 25.3876 38.9255 25.3643C38.3669 25.2475 38.6422 25.0061 38.4219 24.9828C38.4219 24.9439 38.3511 24.9283 38.0915 24.9828L36.8089 24.9127L37.3125 25.372C36.7459 25.5822 36.1086 25.3253 36.6909 25.8469C35.8332 25.0684 31.9147 25.4421 31.3875 25.1774C30.5553 25.421 29.6775 25.4716 28.8224 25.3253C29.0584 25.4343 29.1765 25.9404 28.3345 25.8392C28.7122 24.8271 26.8316 25.2708 26.2179 24.469C26.7766 25.0217 23.8573 24.4067 24.7229 25.1852C24.0304 25.0295 24.7229 24.7959 24.2114 24.4923C23.307 24.5704 22.3958 24.4886 21.5204 24.251C20.5475 23.9458 19.5497 23.7243 18.5382 23.5892C18.4831 23.7216 18.79 23.9785 18.3258 24.1108L17.3737 23.2622C16.9645 23.2622 16.8701 23.9785 16.2249 23.3868C16.3114 23.5192 16.4373 23.7138 16.1619 23.7138C14.2104 23.1325 12.2269 22.662 10.2212 22.3047C9.21558 22.1066 8.22855 21.8253 7.27051 21.4639C6.29318 21.119 5.37504 20.628 4.54801 20.008C4.97291 20.4362 4.62669 20.3428 4.2254 20.2104C4.46145 20.3584 4.10738 20.5296 4.09165 20.7243C3.61954 20.3661 3.13955 20.0469 2.68318 19.6655C2.21107 20.0236 0.999311 19.0115 0.63736 19.4008L1.17241 19.5253C0.275402 19.79 1.61305 21.0824 1.24323 21.7519C2.22679 21.4716 2.94283 23.4335 4.54801 22.9898C4.78406 23.2389 4.23327 23.1377 4.32769 23.3557C4.76046 23.161 5.16176 23.2467 5.86206 23.597L5.75189 23.6437C6.61762 23.8619 7.46268 24.1536 8.27767 24.5157C9.06453 24.8037 9.85138 25.1307 10.9844 25.5278L10.8979 25.1307C11.1862 25.2316 11.4531 25.3847 11.6848 25.5822C12.3929 25.1774 10.2605 25.2163 10.9372 24.7337C11.433 25.6601 14.5253 25.5122 14.8243 26.4464C15.6111 26.5788 14.6669 25.9871 15.4616 26.1194L15.6269 26.3841L15.8787 26.1272C16.3901 26.2596 16.6104 26.5865 16.5947 26.789C16.4248 26.7692 16.2531 26.7692 16.0832 26.789C16.7206 27.1704 18.011 27.0303 18.2313 27.1315C17.9795 27.0537 17.7356 26.9602 17.4838 26.8746C18.5854 26.9447 19.7972 27.1082 20.9932 27.2639C22.146 27.4169 23.3124 27.443 24.4711 27.3417L24.3216 27.1549C25.9582 26.9758 25.5963 27.4429 27.3667 27.4351H27.3037C27.723 27.2807 28.1735 27.2273 28.6178 27.2794C28.1614 27.4585 29.4046 27.7154 28.8381 27.91C30.6006 27.6609 29.7194 27.6843 30.8918 27.1315L31.1278 27.4818C31.4977 27.1786 31.9702 27.0256 32.4497 27.0537C31.718 27.2794 32.9927 27.513 32.1743 27.8322C34.0077 28.5251 34.9362 27.2794 35.7545 28.2137C36.6201 27.4351 34.1808 27.7465 34.6529 27.5831C34.2595 27.3106 35.3611 26.9992 35.9355 27.0848C36.5099 27.1704 36.919 28.128 38.3983 28.128C38.2567 28.128 38.241 28.1825 38.0993 28.1825C38.6501 28.3849 39.1852 27.91 39.8619 28.237C40.2474 27.7543 40.751 28.237 40.8533 27.6531L39.4999 27.7933C40.2868 27.6298 40.9871 26.9213 42.2539 27.2561C42.0377 27.4314 41.7892 27.5636 41.5221 27.6453C41.8919 27.8244 42.2381 27.5208 42.6158 27.6998C42.5135 28.3226 40.9713 27.8477 40.1451 28.3149C40.5464 28.5718 41.7189 27.8711 41.294 28.5406C41.8841 27.6843 42.7575 28.6341 43.7489 27.9801L43.686 28.346C43.932 28.2234 44.1987 28.1469 44.4728 28.1202L43.9535 28.6029C44.7403 28.1903 45.5272 28.9377 46.314 28.7119C44.6853 28.7119 45.9442 28.2682 45.2518 28.0112C47.2504 27.4818 46.4242 28.961 48.6667 28.7431C48.3598 28.8053 47.5179 28.5484 47.99 28.3616C48.4342 28.4121 48.8643 28.5469 49.2569 28.7586C50.7361 28.6496 49.0208 28.3771 49.6503 28.1436C50.1617 28.5796 50.3742 27.9412 51.0194 27.7855V28.1592C52.719 28.3694 51.4522 27.3806 52.9787 27.6298L52.3492 28.1669L53.136 28.019L52.9866 28.4472C53.6092 28.1801 54.304 28.1253 54.9615 28.2915C54.7569 28.0346 55.056 27.6064 55.8035 27.5831C56.3228 27.7933 55.5281 27.9412 56.5903 27.8711C56.3543 28.1124 56.0946 28.4083 55.6304 28.0735C55.5832 28.1981 55.3943 28.3149 55.3471 28.4316C55.9302 28.5597 56.5345 28.5597 57.1175 28.4316C56.975 28.4298 56.8339 28.4035 56.7005 28.3538L58.227 27.801C58.4788 27.9334 58.2821 28.0502 58.0932 28.1669C58.4148 28.0572 58.7434 27.9688 59.0768 27.9022C58.9666 28.2059 58.9981 28.5251 58.3529 28.6808L59.8164 28.3071C59.9187 28.4394 60.6033 28.6574 60.3908 28.7742C61.1777 28.9377 62.3737 28.1358 63.4596 28.3538C63.5693 28.2573 63.7069 28.1974 63.853 28.1825C64.868 28.2292 65.7729 28.5796 67.0004 28.128L67.6928 28.6574C68.637 28.5095 66.7564 27.9879 68.3144 27.7465C69.4239 27.5363 68.7472 28.1981 69.1406 28.3382C69.4961 28.0747 69.9083 27.8962 70.3451 27.8165C70.7819 27.7368 71.2315 27.7582 71.6585 27.8789C71.3361 27.931 71.0091 27.9492 70.6828 27.9334ZM82.2731 27.2639C82.0528 27.3573 81.6122 27.622 81.4391 27.404C81.6909 26.9602 81.9033 27.1626 82.2731 27.2639ZM99.8592 25.302C99.7019 25.4421 99.4422 25.4032 99.1353 25.302C99.3781 25.2413 99.6322 25.2413 99.875 25.302H99.8592ZM147.739 14.9788C147.22 15.0255 147.401 15.0255 147.755 14.9788H147.739ZM148.778 14.8698C148.864 14.7919 148.841 14.7374 148.778 14.6985C148.731 14.8153 148.51 14.8775 148.251 14.9243C148.369 15.0255 148.518 15.0255 148.793 14.8698H148.778ZM38.2095 25.0529L38.4141 25.1541C37.9734 25.2553 38.0993 25.1463 38.2095 25.0529Z" fill="#D020C9"/>
<path id="Vector_57" d="M97.9157 25.9716C97.8625 25.9142 97.8246 25.8447 97.8055 25.7692C97.7269 25.8392 97.7269 25.9249 97.9157 25.9716Z" fill="#D020C9"/>
<path id="Vector_58" d="M63.4596 28.3226C63.4534 28.343 63.4534 28.3646 63.4596 28.3849V28.3226Z" fill="#D020C9"/>
<path id="Vector_59" d="M133.835 21.604C133.679 21.606 133.525 21.5684 133.387 21.495C133.418 21.5884 133.505 21.6507 133.835 21.604Z" fill="#D020C9"/>
<path id="Vector_60" d="M153.877 12.7522L153.271 13.0403C153.464 12.9685 153.673 12.9497 153.877 12.9858C153.821 12.9079 153.664 12.8223 153.877 12.7522Z" fill="#D020C9"/>
<path id="Vector_61" d="M160.061 13.2427C160.14 13.1726 160.258 13.1726 160.329 13.1026L160.25 12.9391C159.865 13.087 159.628 13.3128 160.061 13.2427Z" fill="#D020C9"/>
<path id="Vector_62" d="M154.813 13.7642C154.955 14.0523 155.324 13.8265 155.749 13.6319H155.671C155.671 13.1959 155.238 13.4684 154.813 13.7642Z" fill="#D020C9"/>
<path id="Vector_63" d="M155.852 13.593C155.975 13.5377 156.104 13.4959 156.237 13.4685C156.237 13.2738 156.08 13.4685 155.852 13.593Z" fill="#D020C9"/>
<path id="Vector_64" d="M149.997 14.3248C150.233 14.3248 149.997 13.8967 150.178 13.9901C150.304 13.5385 148.896 14.8387 149.997 14.3248Z" fill="#D020C9"/>
<path id="Vector_65" d="M155.482 14.6518L155.206 14.3326L155.049 14.7063L155.482 14.6518Z" fill="#D020C9"/>
<path id="Vector_66" d="M151.878 15.4459L152.625 15.3525C152.625 15.2902 152.673 15.2279 152.775 15.1656C152.303 15.2902 151.823 15.3369 151.878 15.4459Z" fill="#D020C9"/>
<path id="Vector_67" d="M152.775 15.1657C152.975 15.122 153.165 15.04 153.334 14.9243C153.139 14.9835 152.951 15.0645 152.775 15.1657Z" fill="#D020C9"/>
<path id="Vector_68" d="M154.545 15.0644L154.309 15.0566L153.798 15.1812L154.545 15.0644Z" fill="#D020C9"/>
<path id="Vector_69" d="M144.12 17.4155L143.333 17.7036C143.278 17.8593 143.514 17.8826 143.797 17.7659C143.986 17.6257 144.269 17.509 144.12 17.4155Z" fill="#D020C9"/>
<path id="Vector_70" d="M146.795 17.8593C146.567 17.8593 146.527 17.7581 146.378 17.6647L146.472 18.1396L146.795 17.8593Z" fill="#D020C9"/>
<path id="Vector_71" d="M144.489 18.5367C144.442 18.6846 143.427 19.1829 144.426 18.9182C144.482 18.7702 145.221 18.4744 144.489 18.5367Z" fill="#D020C9"/>
<path id="Vector_72" d="M132.34 20.5452L132.537 20.5063L132.364 19.7278L132.34 20.5452Z" fill="#D020C9"/>
<path id="Vector_73" d="M121.938 24.1809C122.93 24.2276 122.096 23.6593 123 23.7683C123.197 23.5503 122.261 23.6827 122.465 23.488C121.915 23.7683 121.616 23.706 121.938 24.1809Z" fill="#D020C9"/>
<path id="Vector_74" d="M122.465 23.4881L122.741 23.3246C122.641 23.3653 122.549 23.4204 122.465 23.4881Z" fill="#D020C9"/>
<path id="Vector_75" d="M1.75469 18.8792L1.25897 18.4977L1.51863 18.8947L1.75469 18.8792Z" fill="#D020C9"/>
<path id="Vector_76" d="M0.440463 18.9804L0.511277 18.4666L-0.0158997 18.7468C0.141471 18.778 0.440463 18.8402 0.440463 18.9804Z" fill="#D020C9"/>
<path id="Vector_77" d="M84.0672 28.2059L84.1065 28.0813C84.0042 27.9568 83.8626 27.9568 83.5636 27.949L84.0672 28.2059Z" fill="#D020C9"/>
<path id="Vector_78" d="M75.6006 28.1747L75.7501 28.1825L75.4669 27.731L75.6006 28.1747Z" fill="#D020C9"/>
<path id="Vector_79" d="M68.5425 28.9767C68.8337 28.9767 69.172 28.8755 69.4631 28.8833C68.8337 28.9845 68.4481 28.4084 68.5425 28.9767Z" fill="#D020C9"/>
</g>
<defs>
<clipPath id="clip0_19_739">
<rect width="180" height="29" fill="white"/>
</clipPath>
</defs>
</svg>
