<svg width="20" height="19" viewBox="0 0 20 19" fill="none" xmlns="http://www.w3.org/2000/svg">
<path id="Vector" d="M2 13H7.612L6.489 16.367C6.287 16.975 6.389 17.649 6.764 18.169C7.139 18.689 7.747 19 8.388 19H10C10.297 19 10.578 18.868 10.769 18.64L15.469 13H18C19.103 13 20 12.103 20 11V2C20 0.896999 19.103 0 18 0H4.693C4.28611 0.0013504 3.88921 0.12616 3.55478 0.357924C3.22035 0.589687 2.96413 0.917492 2.82 1.298L0.0629997 8.649C0.0211391 8.76128 -0.000200272 8.88017 0 9V11C0 12.103 0.896999 13 2 13ZM18 11H16V2H18V11ZM2 9.181L4.693 2H14V11.638L9.532 17H8.386L9.948 12.317C9.99871 12.1667 10.0129 12.0064 9.98926 11.8496C9.96566 11.6927 9.90501 11.5437 9.81234 11.415C9.71966 11.2862 9.59763 11.1814 9.45635 11.1092C9.31508 11.0371 9.15864 10.9996 9 11H2V9.181Z" fill="black"/>
</svg>
