<svg width="25" height="24" viewBox="0 0 25 24" fill="none" xmlns="http://www.w3.org/2000/svg">
<g id="bx:like">
<path id="Vector" d="M20.5 8H14.888L16.011 4.633C16.213 4.025 16.111 3.351 15.736 2.831C15.361 2.311 14.753 2 14.112 2H12.5C12.203 2 11.922 2.132 11.731 2.36L7.031 8H4.5C3.397 8 2.5 8.897 2.5 10V19C2.5 20.103 3.397 21 4.5 21H17.807C18.2139 20.9986 18.6108 20.8738 18.9452 20.6421C19.2797 20.4103 19.5359 20.0825 19.68 19.702L22.437 12.351C22.4789 12.2387 22.5002 12.1198 22.5 12V10C22.5 8.897 21.603 8 20.5 8ZM4.5 10H6.5V19H4.5V10Z" fill="black"/>
</g>
</svg>
