<svg width="36" height="76" viewBox="0 0 36 76" fill="none" xmlns="http://www.w3.org/2000/svg">
<path id="Ellipse 8" d="M26.6116 71.9274C21.3394 77.1996 12.6181 77.2529 8.75299 70.8769C6.81132 67.6739 5.18919 64.275 3.91688 60.7281C1.1187 52.9273 0.0819803 44.6039 0.881114 36.3551C1.68024 28.1063 4.29542 20.1367 8.53896 13.0181C10.4685 9.78137 12.7129 6.75708 15.2333 3.98633C20.2504 -1.52916 28.7993 0.197266 32.9614 6.38346L33.322 6.91936C37.285 12.8096 35.3666 20.7457 31.7314 26.8437C29.5284 30.5392 28.1708 34.6765 27.7559 38.9587C27.3411 43.2409 27.8793 47.5619 29.3319 51.6115C31.7289 58.2939 32.0883 66.4507 27.0683 71.4707L26.6116 71.9274Z" fill="#C900C1" fill-opacity="0.05"/>
</svg>
