<svg width="25" height="24" viewBox="0 0 25 24" fill="none" xmlns="http://www.w3.org/2000/svg">
<g id="Icon / Facebook">
<path id="Vector" d="M17.1666 6H14.1666C13.6143 6 13.1666 6.44772 13.1666 7V10H17.1666C17.2803 9.99748 17.3882 10.0504 17.4558 10.1419C17.5234 10.2334 17.5424 10.352 17.5066 10.46L16.7666 12.66C16.6984 12.8619 16.5097 12.9984 16.2966 13H13.1666V20.5C13.1666 20.7761 12.9427 21 12.6666 21H10.1666C9.89049 21 9.66663 20.7761 9.66663 20.5V13H8.16663C7.89049 13 7.66663 12.7761 7.66663 12.5V10.5C7.66663 10.2239 7.89049 10 8.16663 10H9.66663V7C9.66663 4.79086 11.4575 3 13.6666 3H17.1666C17.4427 3 17.6666 3.22386 17.6666 3.5V5.5C17.6666 5.77614 17.4427 6 17.1666 6Z" fill="#6A6D70"/>
</g>
</svg>
