<svg width="25" height="24" viewBox="0 0 25 24" fill="none" xmlns="http://www.w3.org/2000/svg">
<g id="Icon / Instagram">
<path id="Vector" fill-rule="evenodd" clip-rule="evenodd" d="M16.6666 3H8.66663C5.90521 3 3.66663 5.23858 3.66663 8V16C3.66663 18.7614 5.90521 21 8.66663 21H16.6666C19.428 21 21.6666 18.7614 21.6666 16V8C21.6666 5.23858 19.428 3 16.6666 3ZM19.9166 16C19.9111 17.7926 18.4592 19.2445 16.6666 19.25H8.66663C6.87398 19.2445 5.42212 17.7926 5.41663 16V8C5.42212 6.20735 6.87398 4.75549 8.66663 4.75H16.6666C18.4592 4.75549 19.9111 6.20735 19.9166 8V16ZM17.4166 8.25C17.9689 8.25 18.4166 7.80228 18.4166 7.25C18.4166 6.69772 17.9689 6.25 17.4166 6.25C16.8643 6.25 16.4166 6.69772 16.4166 7.25C16.4166 7.80228 16.8643 8.25 17.4166 8.25ZM12.6666 7.5C10.1813 7.5 8.16663 9.51472 8.16663 12C8.16663 14.4853 10.1813 16.5 12.6666 16.5C15.1519 16.5 17.1666 14.4853 17.1666 12C17.1693 10.8057 16.696 9.65957 15.8515 8.81508C15.007 7.97059 13.8609 7.49734 12.6666 7.5ZM9.91663 12C9.91663 13.5188 11.1478 14.75 12.6666 14.75C14.1854 14.75 15.4166 13.5188 15.4166 12C15.4166 10.4812 14.1854 9.25 12.6666 9.25C11.1478 9.25 9.91663 10.4812 9.91663 12Z" fill="#6A6D70"/>
</g>
</svg>
