<svg width="25" height="24" viewBox="0 0 25 24" fill="none" xmlns="http://www.w3.org/2000/svg">
<g id="Icon / LinkedIn">
<path id="Vector" fill-rule="evenodd" clip-rule="evenodd" d="M5.66663 3H19.6666C20.7712 3 21.6666 3.89543 21.6666 5V19C21.6666 20.1046 20.7712 21 19.6666 21H5.66663C4.56206 21 3.66663 20.1046 3.66663 19V5C3.66663 3.89543 4.56206 3 5.66663 3ZM8.66663 18C8.94277 18 9.16663 17.7761 9.16663 17.5V10.5C9.16663 10.2239 8.94277 10 8.66663 10H7.16663C6.89049 10 6.66663 10.2239 6.66663 10.5V17.5C6.66663 17.7761 6.89049 18 7.16663 18H8.66663ZM7.91663 9C7.0882 9 6.41663 8.32843 6.41663 7.5C6.41663 6.67157 7.0882 6 7.91663 6C8.74506 6 9.41663 6.67157 9.41663 7.5C9.41663 8.32843 8.74506 9 7.91663 9ZM18.1666 18C18.4427 18 18.6666 17.7761 18.6666 17.5V12.9C18.6991 11.3108 17.5242 9.95452 15.9466 9.76C14.8436 9.65925 13.7749 10.1744 13.1666 11.1V10.5C13.1666 10.2239 12.9427 10 12.6666 10H11.1666C10.8905 10 10.6666 10.2239 10.6666 10.5V17.5C10.6666 17.7761 10.8905 18 11.1666 18H12.6666C12.9427 18 13.1666 17.7761 13.1666 17.5V13.75C13.1666 12.9216 13.8382 12.25 14.6666 12.25C15.495 12.25 16.1666 12.9216 16.1666 13.75V17.5C16.1666 17.7761 16.3905 18 16.6666 18H18.1666Z" fill="#6A6D70"/>
</g>
</svg>
