<svg width="19" height="20" viewBox="0 0 19 20" fill="none" xmlns="http://www.w3.org/2000/svg">
<g id="Location" clip-path="url(#clip0_1_247)">
<g id="&#240;&#159;&#166;&#134; icon &#34;box iso&#34;">
<path id="Vector" d="M10.6602 11.3923L10.7162 11.5183L10.7248 11.5145V18.0754L10.6602 11.3923Z" fill="black" stroke="#F97316" stroke-width="1.4"/>
<path id="Vector_2" d="M3.69153 15.2937V7.1875C3.69153 6.99943 3.80228 6.82901 3.97415 6.75263L10.6366 3.7915C10.7597 3.73682 10.9001 3.73682 11.0232 3.7915L17.6857 6.75263C17.8576 6.82901 17.9683 6.99943 17.9683 7.1875V15.2937C17.9683 15.4818 17.8576 15.6522 17.6857 15.7286L11.0232 18.6897C10.9001 18.7443 10.7597 18.7443 10.6366 18.6897L3.97415 15.7286C3.80228 15.6522 3.69153 15.4818 3.69153 15.2937Z" stroke="#F97316" stroke-width="1.4" stroke-linecap="round" stroke-linejoin="round"/>
<path id="Vector_3" d="M7.26074 5.29199L14.1165 8.33901C14.2884 8.41539 14.3991 8.58582 14.3991 8.77388V11.6372" stroke="#F97316" stroke-width="1.4" stroke-linecap="round" stroke-linejoin="round"/>
</g>
</g>
<defs>
<clipPath id="clip0_1_247">
<rect width="18.49" height="18.49" fill="white" transform="translate(0.449951 0.586914)"/>
</clipPath>
</defs>
</svg>
