<svg width="25" height="24" viewBox="0 0 25 24" fill="none" xmlns="http://www.w3.org/2000/svg">
<g id="Icon / Twitter">
<path id="Vector" d="M21.6394 6.7174C21.175 7.33692 20.6136 7.87733 19.9769 8.31776C19.9769 8.47959 19.9769 8.64142 19.9769 8.81225C19.982 11.7511 18.8081 14.5691 16.7184 16.6345C14.6286 18.6999 11.7978 19.8399 8.86068 19.7989C7.16262 19.8046 5.4863 19.4169 3.96305 18.6661C3.88091 18.6302 3.82794 18.549 3.82825 18.4593V18.3604C3.82825 18.2313 3.93286 18.1267 4.0619 18.1267C5.73105 18.0716 7.34065 17.4929 8.66297 16.4724C7.15216 16.4419 5.79282 15.5469 5.16723 14.1707C5.13564 14.0956 5.14547 14.0093 5.1932 13.9432C5.24092 13.8771 5.31963 13.8407 5.40088 13.8471C5.86005 13.8932 6.32381 13.8505 6.76683 13.7212C5.09902 13.375 3.84584 11.9904 3.66649 10.2957C3.66012 10.2144 3.69655 10.1357 3.76263 10.0879C3.8287 10.0402 3.91487 10.0303 3.99001 10.062C4.43757 10.2595 4.92072 10.3635 5.40987 10.3676C3.94847 9.40846 3.31724 7.58405 3.87318 5.92622C3.93057 5.76513 4.06844 5.64612 4.23613 5.61294C4.40381 5.57975 4.57659 5.63728 4.69095 5.76439C6.66302 7.86325 9.37267 9.11396 12.2485 9.25279C12.1749 8.95885 12.1387 8.65676 12.1407 8.35372C12.1676 6.76472 13.1508 5.34921 14.63 4.76987C16.1091 4.19054 17.7915 4.56203 18.8896 5.71044C19.638 5.56785 20.3616 5.31645 21.0373 4.96421C21.0868 4.93331 21.1496 4.93331 21.1991 4.96421C21.23 5.01373 21.23 5.07652 21.1991 5.12604C20.8718 5.87552 20.3189 6.50412 19.6175 6.92419C20.2317 6.85296 20.8351 6.70807 21.4148 6.49264C21.4636 6.45942 21.5277 6.45942 21.5765 6.49264C21.6174 6.51134 21.648 6.54711 21.6601 6.59042C21.6722 6.63373 21.6646 6.68018 21.6394 6.7174Z" fill="#6A6D70"/>
</g>
</svg>
